# xmcd
#
# Track frame offsets:
#	183
#	17508
#	31758
#	49608
#	65883
#	78783
#	93408
#	111483
#	123708
#	141708
#
# Disc length: 2052 seconds
#
# Revision: 0
# Processed by: cddbd v1.4PL0 Copyright (c) Steve Scherf et al.
# Submitted via: audiograbber 1.81.01
#
DISCID=8a08020a
DTITLE=NICOLA DI BARI - I GRANDI SUCCESSI DI NICOLA DI BARI
DYEAR=1900
DGENRE=POP
TTITLE0=TI FA BELLA L'AMORE
TTITLE1=LA PRIMA COSA BELLA
TTITLE2=PAESE
TTITLE3=ZAPPONETA
TTITLE4=SE MAI TI PARLASSERO DI ME
TTITLE5=VAGABONDO
TTITLE6=UNA RAGAZZINA COME TE
TTITLE7=GIRAMONDO
TTITLE8=SAI CHE BEVO SAI CHE FUMO
TTITLE9=IL MONDO E GRIGIO E IL MONDO E BLU'
EXTD=
EXTT0=
EXTT1=
EXTT2=
EXTT3=
EXTT4=
EXTT5=
EXTT6=
EXTT7=
EXTT8=
EXTT9=
PLAYORDER=
